<?xml version="1.0" encoding="iso-8859-1"?>
<!-- Uploaded to: SVG Repo, www.svgrepo.com, Generator: SVG Repo Mixer Tools -->
<svg height="800px" width="800px" version="1.1" id="Layer_1" xmlns="http://www.w3.org/2000/svg" xmlns:xlink="http://www.w3.org/1999/xlink" 
	 viewBox="0 0 512.001 512.001" xml:space="preserve">
<path style="fill:#3E3E42;" d="M504.465,155.486c-4.723-3.316-10.766-4.118-16.192-2.158l-257.307,93.019
	c-7.014,2.535-11.686,9.194-11.686,16.652c0,7.459,4.673,14.117,11.686,16.652l257.307,93.019c1.956,0.708,3.993,1.055,6.019,1.055
	c3.593,0,7.153-1.094,10.173-3.213c4.723-3.316,7.535-8.724,7.535-14.495V169.981C512,164.212,509.187,158.802,504.465,155.486z"/>
<path style="fill:#797882;" d="M504.465,155.486c-4.723-3.316-10.766-4.118-16.192-2.158l-257.307,93.019
	c-7.014,2.535-11.686,9.194-11.686,16.652l0,0h292.721v-93.019C512,164.212,509.187,158.802,504.465,155.486z"/>
<path style="fill:#1D1D1F;" d="M252.934,489.372c-9.083,0-17.868-4.889-22.431-13.468l-59.369-111.648l-59.369,111.648
	c-6.581,12.374-21.949,17.071-34.325,10.493c-12.376-6.581-17.074-21.949-10.493-34.326l81.779-153.787
	c4.406-8.285,13.025-13.464,22.408-13.464s18.003,5.178,22.408,13.464l81.779,153.787c6.581,12.376,1.884,27.744-10.493,34.326
	C261.032,488.415,256.954,489.372,252.934,489.372z"/>
<path style="fill:#3E3E42;" d="M148.726,298.284L66.947,452.071c-6.581,12.376-1.884,27.744,10.493,34.326
	c12.376,6.579,27.744,1.881,34.325-10.493l59.369-111.648v-79.436C161.75,284.822,153.132,290,148.726,298.284z"/>
<path style="fill:#313E45;" d="M303.682,162.661c-14.017,0-25.38-11.363-25.38-25.38V73.388H93.559
	c-14.017,0-25.38-11.363-25.38-25.38s11.363-25.38,25.38-25.38h210.122c14.017,0,25.38,11.363,25.38,25.38v89.273
	C329.062,151.298,317.698,162.661,303.682,162.661z"/>
<path style="fill:#30767A;" d="M348.664,119.574H37.358C16.758,119.574,0,136.332,0,156.931v212.138
	c0,20.599,16.758,37.358,37.358,37.358h311.306c20.598,0,37.358-16.758,37.358-37.358V156.931
	C386.021,136.332,369.263,119.574,348.664,119.574z"/>
<path style="fill:#4AB6BF;" d="M193.01,119.574H37.358C16.758,119.574,0,136.332,0,156.931v212.138
	c0,20.599,16.758,37.358,37.358,37.358H193.01V119.574z"/>
<path style="fill:#30767A;" d="M297.505,351.534H88.517c-11.397,0-20.635-9.239-20.635-20.635V230.515
	c0-11.397,9.239-20.635,20.635-20.635h208.987c11.397,0,20.635,9.239,20.635,20.635v100.384
	C318.14,342.296,308.901,351.534,297.505,351.534z"/>
<path style="fill:#C6C5CA;" d="M297.505,333.828H88.517c-11.397,0-20.635-9.239-20.635-20.635V212.809
	c0-11.397,9.239-20.635,20.635-20.635h208.987c11.397,0,20.635,9.239,20.635,20.635v100.384
	C318.14,324.588,308.901,333.828,297.505,333.828z"/>
<path style="fill:#F2F2F2;" d="M193.01,192.172H89.672c-12.034,0-21.79,9.756-21.79,21.791v98.074
	c0,12.034,9.756,21.791,21.79,21.791H193.01V192.172z"/>
<g>
	<path style="fill:#00558A;" d="M138.417,314.604c-28.455,0-51.605-23.149-51.605-51.605c0-28.456,23.151-51.604,51.605-51.604
		s51.605,23.149,51.605,51.605C190.022,291.456,166.872,314.604,138.417,314.604z M138.417,246.809
		c-8.928,0-16.191,7.264-16.191,16.19c0,8.926,7.263,16.191,16.191,16.191c8.928,0,16.19-7.264,16.19-16.191
		C154.607,254.073,147.344,246.809,138.417,246.809z"/>
	<path style="fill:#00558A;" d="M248.2,314.604c-28.455,0-51.605-23.149-51.605-51.605c0-28.456,23.151-51.604,51.605-51.604
		s51.605,23.149,51.605,51.605C299.805,291.456,276.655,314.604,248.2,314.604z M248.2,246.809c-8.928,0-16.19,7.264-16.19,16.19
		c0,8.926,7.263,16.191,16.19,16.191s16.19-7.264,16.19-16.191C264.39,254.073,257.127,246.809,248.2,246.809z"/>
</g>
<g>
	<path style="fill:#0076BF;" d="M122.226,263c0-8.928,7.263-16.191,16.191-16.191v-35.415c-28.455,0-51.605,23.149-51.605,51.605
		c0,28.456,23.149,51.605,51.605,51.605v-35.414C129.489,279.191,122.226,271.928,122.226,263z"/>
	<path style="fill:#0076BF;" d="M232.009,263c0-8.928,7.263-16.191,16.19-16.191v-35.415c-28.455,0-51.605,23.149-51.605,51.605
		c0,28.456,23.149,51.605,51.605,51.605v-35.414C239.272,279.191,232.009,271.928,232.009,263z"/>
</g>
</svg>